<?xml version="1.0" encoding="utf-8"?>
<!-- Game Commentary Settings Icon (Game Controller) -->
<svg version="1.1" xmlns="http://www.w3.org/2000/svg" x="0px" y="0px" viewBox="0 0 512 512" style="width: 48px; height: 48px; opacity: 1;" xml:space="preserve">
<style type="text/css">
	.st0{fill:#4B4B4B;}
</style>
<g>
	<!-- Controller body -->
	<path class="st0" d="M432,128H80c-44.2,0-80,35.8-80,80v96c0,44.2,35.8,80,80,80h352c44.2,0,80-35.8,80-80v-96C512,163.8,476.2,128,432,128z M464,304c0,17.7-14.3,32-32,32H80c-17.7,0-32-14.3-32-32v-96c0-17.7,14.3-32,32-32h352c17.7,0,32,14.3,32,32V304z"/>
	<!-- D-pad horizontal -->
	<rect class="st0" x="88" y="232" width="112" height="48"/>
	<!-- D-pad vertical -->
	<rect class="st0" x="120" y="200" width="48" height="112"/>
	<!-- Button A -->
	<circle class="st0" cx="368" cy="224" r="28"/>
	<!-- Button B -->
	<circle class="st0" cx="416" cy="272" r="28"/>
	<!-- Button X -->
	<circle class="st0" cx="320" cy="272" r="28"/>
	<!-- Button Y -->
	<circle class="st0" cx="368" cy="320" r="28"/>
</g>
</svg>
